<?xml version="1.0" standalone="no"?>
<!DOCTYPE svg PUBLIC "-//W3C//DTD SVG 20010904//EN"
 "http://www.w3.org/TR/2001/REC-SVG-20010904/DTD/svg10.dtd">
<svg version="1.0" xmlns="http://www.w3.org/2000/svg"
 width="100.000000pt" height="100.000000pt" viewBox="0 0 100.000000 100.000000"
 preserveAspectRatio="xMidYMid meet">
<metadata>
Created by potrace 1.11, written by Peter Selinger 2001-2013
</metadata>
<g transform="translate(0.000000,100.000000) scale(0.100000,-0.100000)"
fill="#000000" stroke="none">
<path d="M430 935 c-14 -8 -38 -14 -54 -15 -18 0 -35 -9 -48 -25 -11 -14 -25
-25 -33 -25 -14 0 -58 -60 -81 -110 -4 -8 -16 -22 -27 -31 -11 -9 -22 -25 -23
-36 -2 -10 -11 -37 -20 -58 -10 -22 -19 -51 -21 -65 -2 -14 -6 -34 -7 -45 -2
-11 1 -30 5 -43 5 -12 10 -37 11 -55 1 -18 4 -36 7 -42 3 -5 7 -23 7 -40 1
-16 7 -43 14 -60 8 -16 14 -32 14 -35 1 -3 12 -21 26 -40 72 -103 191 -165
310 -161 44 1 79 7 86 14 4 4 15 7 25 7 38 0 162 105 197 167 6 13 12 36 12
52 0 17 4 32 9 36 6 3 9 18 7 33 -1 15 1 37 6 50 14 40 18 125 7 166 -6 22
-12 49 -13 60 -4 27 -27 76 -36 76 -4 0 -11 8 -14 18 -9 25 -30 59 -51 82 -10
11 -15 20 -11 20 4 0 2 9 -4 20 -6 11 -16 20 -22 20 -6 0 -25 15 -43 33 -27
27 -38 32 -79 32 -26 0 -50 3 -52 7 -8 13 -77 8 -104 -7z"/>
</g>
</svg>
