<?xml version="1.0" standalone="no"?>
<!DOCTYPE svg PUBLIC "-//W3C//DTD SVG 20010904//EN"
 "http://www.w3.org/TR/2001/REC-SVG-20010904/DTD/svg10.dtd">
<svg version="1.0" xmlns="http://www.w3.org/2000/svg"
 width="500.000000pt" height="500.000000pt" viewBox="0 0 500.000000 500.000000"
 preserveAspectRatio="xMidYMid meet">
<metadata>
Created by potrace 1.11, written by Peter Selinger 2001-2013
</metadata>
<g transform="translate(0.000000,500.000000) scale(0.100000,-0.100000)"
fill="#000000" stroke="none">
<path d="M2362 4848 c-68 -10 -121 -38 -160 -82 -37 -42 -128 -79 -187 -76
-22 1 -49 3 -60 3 -30 1 -182 -41 -232 -64 -51 -23 -135 -104 -153 -148 -10
-25 -24 -34 -76 -51 -89 -30 -156 -82 -196 -154 -18 -32 -46 -70 -61 -84 -36
-33 -97 -141 -97 -171 0 -14 -18 -38 -46 -64 -25 -23 -53 -55 -61 -71 -8 -16
-23 -38 -34 -49 -10 -11 -30 -43 -45 -72 -20 -38 -38 -57 -64 -69 -23 -10 -50
-38 -82 -84 -48 -71 -65 -117 -71 -192 -2 -37 -10 -52 -44 -85 -47 -46 -66
-100 -67 -186 -1 -31 -6 -62 -11 -70 -50 -66 -94 -221 -88 -304 2 -22 4 -119
6 -215 2 -128 6 -182 17 -200 7 -14 15 -46 16 -72 1 -25 5 -51 8 -57 4 -6 9
-43 12 -83 3 -40 9 -93 14 -118 6 -25 12 -60 15 -79 3 -19 8 -37 10 -41 6 -10
15 -64 21 -129 15 -156 32 -226 86 -361 47 -115 146 -305 179 -343 9 -9 22
-30 30 -45 8 -15 16 -29 20 -32 3 -3 18 -23 34 -45 16 -22 34 -44 39 -50 6 -5
24 -28 41 -50 16 -22 64 -75 106 -117 43 -42 74 -79 71 -83 -4 -4 -2 -5 3 -3
11 3 127 -87 119 -94 -2 -3 2 -5 9 -5 7 0 39 -20 72 -45 33 -25 83 -58 110
-73 28 -16 52 -32 55 -35 3 -3 37 -20 75 -39 39 -18 86 -42 106 -52 20 -10 39
-16 43 -12 3 3 6 1 6 -6 0 -7 4 -10 9 -7 5 4 22 1 38 -6 32 -13 38 -15 54 -17
8 -1 7 -7 -2 -19 -13 -15 -12 -16 3 -4 22 17 64 11 60 -8 -3 -11 0 -12 8 -4
11 11 70 7 70 -5 0 -3 14 -7 31 -8 17 -1 38 -8 47 -15 13 -11 14 -11 7 1 -6
11 -4 13 9 8 10 -4 20 -7 22 -7 3 0 2 -6 -2 -12 -5 -10 -4 -10 5 -2 13 12 58
7 67 -8 3 -5 12 -4 20 3 8 6 14 7 14 2 0 -5 18 -9 41 -9 26 1 44 -4 50 -14 7
-13 8 -12 9 3 0 11 4 15 12 11 6 -4 26 -7 45 -6 20 1 31 -3 28 -8 -3 -6 -1
-10 4 -10 6 0 11 4 11 9 0 5 18 8 40 7 22 0 40 3 40 8 0 5 8 2 17 -5 9 -8 14
-9 10 -3 -4 8 3 12 21 12 50 1 121 10 133 18 6 3 15 0 20 -7 7 -11 9 -9 9 6 0
15 2 17 9 6 6 -9 11 -10 15 -2 10 15 29 14 20 -1 -4 -7 2 -5 14 6 13 11 30 16
42 13 11 -3 18 -2 15 3 -8 12 53 18 65 6 8 -8 9 -5 4 9 -7 18 -6 19 11 5 10
-8 16 -10 12 -3 -4 6 -3 14 2 17 5 4 12 2 16 -4 3 -5 12 -10 18 -10 8 0 8 3
-2 9 -9 6 -10 11 -2 15 6 4 15 5 20 2 5 -4 11 -2 13 2 1 5 17 12 33 16 22 5
26 4 15 -4 -11 -7 -11 -10 -2 -10 7 0 15 6 18 14 3 7 16 12 29 10 14 -1 28 3
32 8 3 7 1 8 -5 4 -7 -4 -12 -2 -12 3 0 15 23 14 39 -1 10 -11 11 -10 6 4 -5
13 0 19 19 24 13 3 30 3 37 -2 8 -4 9 -3 5 4 -8 13 41 41 66 37 12 -2 15 2 10
13 -5 15 -4 16 13 2 10 -8 16 -10 12 -3 -10 15 38 48 54 37 7 -4 9 -3 5 4 -3
6 -2 13 4 17 5 3 10 0 11 -7 0 -7 4 -3 9 10 5 12 14 22 20 22 6 0 8 -6 4 -12
-4 -8 -3 -10 2 -5 5 5 9 12 9 17 0 10 92 80 106 80 5 0 7 5 4 10 -3 6 1 10 10
10 9 0 13 -4 10 -10 -3 -6 1 -7 10 -3 13 4 14 8 4 14 -8 4 -11 10 -9 12 3 2
25 19 50 37 25 19 51 42 58 50 8 8 11 9 7 3 -3 -7 -4 -13 0 -13 3 0 10 12 15
26 8 20 15 24 33 19 17 -5 19 -4 7 4 -13 10 -10 16 18 41 17 16 32 33 32 36 0
11 42 44 50 39 4 -3 14 3 21 13 13 15 12 16 -3 3 -24 -18 -23 1 1 23 15 13 20
14 25 4 3 -7 3 -2 0 11 -4 14 -2 21 4 17 5 -3 12 4 15 15 3 12 10 18 16 14 7
-4 8 0 4 11 -5 14 -3 16 12 11 15 -6 16 -5 5 8 -12 15 -4 20 22 16 4 0 5 6 2
13 -3 8 3 23 14 34 11 11 17 24 14 28 -4 4 2 4 12 0 16 -5 17 -4 6 9 -7 8 -8
15 -3 15 5 0 17 16 26 35 9 19 21 35 27 35 5 0 9 3 8 8 0 4 2 15 7 25 6 15 10
16 16 5 6 -9 9 -9 9 -1 0 6 -5 15 -10 18 -6 4 -8 11 -4 16 3 5 10 7 15 3 6 -3
9 0 8 7 -5 24 22 90 33 83 7 -5 8 -2 3 6 -4 7 -2 16 6 21 11 7 11 9 1 9 -8 0
-10 6 -5 17 5 10 8 29 8 43 0 14 7 31 15 38 11 10 12 12 1 6 -11 -5 -13 -3 -8
10 4 10 7 20 7 22 0 3 6 2 13 -2 6 -4 4 1 -5 12 -12 14 -14 24 -7 37 6 9 7 17
3 17 -3 0 -1 7 6 15 10 12 10 15 -1 16 -8 0 -5 4 6 9 16 7 17 9 3 9 -15 1 -14
7 7 56 14 31 24 61 22 68 -1 6 4 11 11 9 10 -2 10 2 3 16 -7 13 -7 22 1 30 7
7 8 12 4 12 -5 0 -2 8 5 17 12 14 12 16 0 8 -11 -6 -13 -4 -8 9 4 10 7 20 7
22 0 3 6 2 13 -2 9 -6 9 -5 0 7 -14 18 -13 59 2 59 5 0 3 5 -5 10 -13 9 -13
11 0 20 10 6 11 10 3 10 -14 0 -13 26 1 49 6 10 5 12 -2 7 -16 -10 -15 7 1 23
10 11 9 12 -1 6 -11 -6 -12 -3 -3 13 6 12 10 25 9 29 -3 14 14 63 22 63 5 0 6
9 3 20 -3 12 0 20 8 20 7 0 9 3 6 7 -4 3 -1 13 6 21 9 13 9 14 0 8 -13 -7 -12
0 4 42 3 9 7 23 9 30 1 8 6 21 10 30 4 9 8 63 9 120 1 56 5 105 9 109 3 3 6
17 6 29 0 13 4 25 9 28 5 4 1 23 -9 43 -10 21 -16 41 -13 46 2 4 0 14 -7 22
-6 8 -13 35 -14 62 -2 26 -6 55 -9 63 -10 26 -39 124 -42 145 -5 32 -10 50
-15 55 -12 12 -31 81 -24 91 4 7 3 9 -4 5 -16 -9 -23 25 -25 109 -1 41 -5 75
-9 75 -4 0 -8 9 -8 20 0 37 -83 175 -136 225 -27 26 -42 54 -49 96 -3 18 -10
38 -15 44 -6 7 -5 16 3 24 9 10 9 11 -5 6 -11 -4 -18 0 -23 14 -3 12 -27 44
-53 72 -26 28 -56 72 -66 98 -11 25 -26 52 -33 59 -7 7 -13 17 -13 21 0 5 -25
34 -55 64 -30 31 -57 67 -59 81 -2 13 -9 33 -14 43 -6 10 -10 21 -11 26 -5 52
-105 151 -194 192 -54 25 -75 41 -85 63 -7 16 -39 57 -72 91 -33 35 -63 68
-67 75 -17 25 -92 76 -139 92 -70 25 -187 24 -243 0 -37 -17 -45 -18 -64 -6
-49 31 -76 40 -130 44 -52 3 -70 11 -104 42 -13 12 -133 51 -178 57 -16 2 -54
0 -83 -5z"/>
<path d="M3870 779 c0 -5 5 -7 10 -4 6 3 10 8 10 11 0 2 -4 4 -10 4 -5 0 -10
-5 -10 -11z"/>
<path d="M3825 740 c-3 -6 1 -7 9 -4 18 7 21 14 7 14 -6 0 -13 -4 -16 -10z"/>
<path d="M3576 514 c-5 -14 -4 -15 9 -4 17 14 19 20 6 20 -5 0 -12 -7 -15 -16z"/>
<path d="M3409 403 c-13 -16 -12 -17 4 -4 16 13 21 21 13 21 -2 0 -10 -8 -17
-17z"/>
<path d="M3310 350 c-9 -6 -10 -10 -3 -10 6 0 15 5 18 10 8 12 4 12 -15 0z"/>
</g>
</svg>
